<svg width="127" height="26" viewBox="0 0 127 26" fill="none" xmlns="http://www.w3.org/2000/svg">
<path d="M22.2597 12.0859C22.2597 17.4044 17.9273 21.7368 12.6089 21.7368C7.29044 21.7368 2.95801 17.4044 2.95801 12.0859C2.95801 8.06722 5.48277 4.43693 9.2475 3.03263L9.3969 2.97287L9.45665 2.82348C10.0094 1.56857 11.2494 0.761841 12.6089 0.761841C13.9684 0.761841 15.2083 1.56857 15.7611 2.82348L15.8208 2.97287L15.9702 3.03263C19.735 4.43693 22.2597 8.06722 22.2597 12.0859Z" fill="#FFF7E2"/>
<path d="M21.1243 6.06534C19.9292 4.37719 18.3008 3.10734 16.3885 2.36037C15.6864 0.911242 14.2223 -6.10352e-05 12.5939 -6.10352e-05C10.9804 -6.10352e-05 9.51638 0.926181 8.79929 2.36037C6.88704 3.10734 5.25864 4.37719 4.06349 6.06534C2.80858 7.8282 2.15125 9.90478 2.15125 12.0859C2.15125 14.8647 3.24182 17.494 5.19889 19.466C7.17089 21.438 9.78529 22.5136 12.579 22.5136C15.3577 22.5136 17.987 21.4231 19.959 19.466C21.931 17.494 23.0067 14.8796 23.0067 12.0859C23.0366 9.91972 22.3792 7.8282 21.1243 6.06534ZM12.6088 21.7368C7.29041 21.7368 2.95797 17.4044 2.95797 12.0859C2.95797 8.06723 5.48274 4.43694 9.24747 3.03264L9.39686 2.97288L9.45662 2.82349C10.0094 1.56858 11.2494 0.76185 12.6088 0.76185C13.9683 0.76185 15.2083 1.56858 15.7611 2.82349L15.8208 2.97288L15.9702 3.03264C19.7349 4.43694 22.2597 8.06723 22.2597 12.0859C22.2597 17.4044 17.9422 21.7368 12.6088 21.7368Z" fill="#271707"/>
<path d="M20.1383 20.5266C20.1383 21.3633 19.3764 22.1401 18.1215 22.7227C17.4791 23.1112 14.0729 25.0981 12.1159 25.0981C12.086 25.0981 12.0412 25.0981 12.0113 25.0981C11.9665 25.0981 11.9067 25.0981 11.8619 25.0981C11.8469 25.0981 11.832 25.0981 11.8171 25.0981C11.7872 25.0981 11.7573 25.0981 11.7274 25.0981C9.72555 24.9487 7.99257 23.6938 6.14009 22.5733C6.11021 22.5584 6.06539 22.5285 6.05045 22.5136C5.06445 21.9608 4.48181 21.2885 4.48181 20.5565C4.48181 18.7488 7.99258 17.2848 12.3101 17.2848C16.6276 17.2848 20.1383 18.719 20.1383 20.5266Z" fill="#271707"/>
<path d="M19.7649 20.5865C19.7649 21.692 16.4334 23.3502 12.3101 23.3502C8.18684 23.3502 4.85535 21.692 4.85535 20.5865C4.85535 19.4809 8.18684 17.2699 12.3101 17.2699C16.4334 17.2699 19.7649 19.4809 19.7649 20.5865Z" fill="#E8914E"/>
<path d="M15.7312 22.9618C11.2942 24.0375 7.61913 22.678 6.75264 22.2597C6.40904 22.0954 9.14295 22.8125 11.5482 22.8125C13.3708 22.8125 14.7303 22.5585 15.7163 22.2298C15.9404 22.1551 15.8507 21.8265 15.6267 21.8713C14.7602 22.0356 13.7891 22.1551 12.7882 22.1999C8.91886 22.3643 5.87122 21.438 5.87122 20.4968C5.87122 19.5557 8.96367 17.4343 12.7882 17.4343C16.6127 17.4343 19.6603 19.4511 19.7499 20.4072C19.7499 20.4221 19.7649 20.4371 19.7649 20.452C19.7499 20.467 20.1832 21.8862 15.7312 22.9618Z" fill="#9F4D1B"/>
<path d="M12.2952 22.2148C15.0922 22.2148 17.3596 21.8336 17.3596 21.3633C17.3596 20.893 15.0922 20.5117 12.2952 20.5117C9.49815 20.5117 7.23071 20.893 7.23071 21.3633C7.23071 21.8336 9.49815 22.2148 12.2952 22.2148Z" fill="#271707"/>
<path d="M16.8069 16.6276C16.7172 17.016 16.5977 17.3895 16.4185 17.748L16.8069 16.6276Z" fill="#EFB886"/>
<path d="M16.8965 18.4801C17.3895 17.6435 17.6733 16.6724 17.6733 15.6416C17.8675 15.6565 18.0767 15.7163 18.241 15.8358C18.4054 15.9553 18.495 16.1495 18.5099 16.3886C18.5996 17.2252 17.9273 18.0468 16.8965 18.4801Z" fill="#CE7435"/>
<path d="M19.2869 16.3139C19.2421 15.8508 19.033 15.4773 18.7193 15.2233C18.3906 14.9693 17.9872 14.8797 17.6884 14.8648V13.4306H17.6735C17.6735 12.9973 17.3448 12.3998 15.8808 11.9516C14.8649 11.6378 13.5203 11.4735 12.1011 11.4735C10.6818 11.4735 9.3373 11.6378 8.32142 11.9516C6.85735 12.3998 6.54363 12.9973 6.52869 13.4306V13.4455V15.6267C6.52869 18.7042 9.03851 21.214 12.116 21.214C13.6847 21.214 15.1189 20.5567 16.1347 19.5109C17.0162 19.3615 17.8229 18.988 18.4055 18.4353C19.0479 17.8228 19.3616 17.0609 19.2869 16.3139ZM7.2906 13.4306C7.32048 13.2812 7.64914 12.9675 8.53057 12.6836C9.47175 12.3998 10.7416 12.2354 12.0861 12.2354C13.4307 12.2354 14.7005 12.3998 15.6417 12.6836C16.5232 12.9525 16.8668 13.2662 16.8817 13.4306V13.4455C16.8817 13.5949 16.553 13.9236 15.6417 14.2074C14.7005 14.4913 13.4307 14.6556 12.0861 14.6556C10.7416 14.6556 9.47175 14.4913 8.53057 14.2074C7.61926 13.9236 7.2906 13.5949 7.2906 13.4455V13.4306ZM16.4186 17.7481C15.6417 19.3466 13.9984 20.4372 12.1011 20.4372C9.45681 20.4372 7.2906 18.2859 7.2906 15.6267V14.5062C7.54457 14.6556 7.87323 14.805 8.30648 14.9395C9.32236 15.2532 10.6669 15.4175 12.0861 15.4175C13.5054 15.4175 14.8499 15.2532 15.8658 14.9395C16.314 14.805 16.6427 14.6556 16.8966 14.5062V15.6267C16.8966 15.9703 16.8668 16.3139 16.7921 16.6276C16.7174 17.016 16.5829 17.3895 16.4186 17.7481ZM16.8966 18.4801C17.3896 17.6435 17.6735 16.6724 17.6735 15.6416C17.8677 15.6566 18.0769 15.7163 18.2412 15.8358C18.4055 15.9553 18.4952 16.1496 18.5101 16.3886C18.5997 17.2252 17.9275 18.0469 16.8966 18.4801Z" fill="#271707"/>
<path d="M16.8964 13.4455C16.8964 13.5949 16.5677 13.9236 15.6564 14.2074C14.7152 14.4913 13.4454 14.6556 12.1009 14.6556C10.7563 14.6556 9.48645 14.4913 8.54527 14.2074C7.63397 13.9236 7.3053 13.5949 7.3053 13.4455V13.4306H16.9113C16.8964 13.4306 16.8964 13.4455 16.8964 13.4455Z" fill="#EFB886"/>
<path d="M16.9114 14.5062V15.6267C16.9114 15.9703 16.8815 16.3139 16.8068 16.6276C16.7172 17.016 16.5977 17.3895 16.4184 17.7481C15.6415 19.3466 13.9982 20.4372 12.1009 20.4372C9.45662 20.4372 7.29041 18.2859 7.29041 15.6267V14.5062C7.54438 14.6556 7.87304 14.805 8.30629 14.9395C9.32217 15.2532 10.6667 15.4175 12.086 15.4175C13.5052 15.4175 14.8498 15.2532 15.8656 14.9395C16.3138 14.805 16.6574 14.6556 16.9114 14.5062Z" fill="#CE7435"/>
<path d="M16.8964 13.4454C16.8964 13.5948 16.5677 13.9234 15.6564 14.2073C14.7152 14.4911 13.4454 14.6555 12.1009 14.6555C10.7563 14.6555 9.48645 14.4911 8.54527 14.2073C7.63397 13.9234 7.3053 13.5948 7.3053 13.4454V13.4304C7.32024 13.281 7.66384 12.9673 8.54527 12.6835C9.48645 12.3996 10.7563 12.2353 12.1009 12.2353C13.4454 12.2353 14.7152 12.3996 15.6564 12.6835C16.5379 12.9524 16.8815 13.2661 16.8964 13.4304V13.4454Z" fill="#E28548"/>
<path d="M9.21764 14.4613C8.99355 14.4165 8.72464 14.3717 8.54537 14.1775C8.42586 14.043 8.48561 13.8637 8.60513 13.7442C8.7844 13.5799 8.99355 13.4902 9.2027 13.4155C9.38198 13.3558 9.57619 13.296 9.75546 13.2512C11.3839 12.9076 13.2662 12.9076 14.8647 13.3707C15.1486 13.4604 15.4474 13.5649 15.6565 13.789C15.9404 14.1326 15.4623 14.3567 15.1785 14.4015C15.3129 14.3268 15.6416 14.1625 15.5968 13.9832C15.4324 13.7143 14.566 13.6097 14.2522 13.5649C13.5202 13.4753 12.7732 13.4604 12.0412 13.4604C11.1149 13.4753 10.1887 13.5052 9.29234 13.6994C8.47067 13.8936 8.4408 14.1028 9.21764 14.4613Z" fill="#271707"/>
<path d="M12.0561 14.7601C13.2277 14.7601 14.1775 14.5862 14.1775 14.3716C14.1775 14.1571 13.2277 13.9832 12.0561 13.9832C10.8845 13.9832 9.93469 14.1571 9.93469 14.3716C9.93469 14.5862 10.8845 14.7601 12.0561 14.7601Z" fill="#271707"/>
<path d="M8.03737 4.97475C8.03737 5.64703 7.76846 6.24461 7.33522 6.67785L7.54437 8.09709L5.72176 7.38C5.69188 7.38 5.662 7.38 5.63213 7.38H2.50979C1.16524 7.38 0.0895996 6.28942 0.0895996 4.95982V4.915C0.0895996 3.57045 1.18018 2.49481 2.50979 2.49481H5.61718C6.96173 2.49481 8.03737 3.58539 8.03737 4.915V4.97475Z" fill="#0094EF"/>
<path d="M6.72278 5.39299C6.72278 5.7366 6.45387 6.00551 6.1252 6.03539C6.11026 6.03539 6.09532 6.03539 6.08038 6.03539H2.19613C2.18119 6.03539 2.16625 6.03539 2.15131 6.03539C1.73301 6.02045 1.3894 5.6619 1.3894 5.2436C1.3894 4.81036 1.74795 4.45181 2.18119 4.45181C2.33059 4.45181 2.46504 4.49663 2.58456 4.57132C2.58456 3.83929 3.18213 3.25665 3.89923 3.25665C4.52668 3.25665 5.04956 3.70484 5.18402 4.28748C5.22884 4.28748 5.25871 4.27254 5.30353 4.27254C5.6322 4.27254 5.90111 4.48169 5.99074 4.78048C6.00568 4.78048 6.03556 4.78048 6.0505 4.78048C6.43893 4.7506 6.72278 5.03445 6.72278 5.39299Z" fill="white"/>
<path d="M16.8666 3.34634C16.8666 4.01861 17.1355 4.61619 17.5688 5.04943L17.3596 6.46868L19.1822 5.75159C19.2121 5.75159 19.242 5.75159 19.2719 5.75159H22.3793C23.7238 5.75159 24.7995 4.66101 24.7995 3.3314V3.28658C24.7995 1.94203 23.7089 0.866394 22.3793 0.866394H19.2719C17.9273 0.866394 16.8517 1.95697 16.8517 3.28658V3.34634H16.8666Z" fill="#0094EF"/>
<path d="M19.1375 3.77951C19.3767 3.77951 19.5707 3.58554 19.5707 3.34627C19.5707 3.10699 19.3767 2.91302 19.1375 2.91302C18.8982 2.91302 18.7042 3.10699 18.7042 3.34627C18.7042 3.58554 18.8982 3.77951 19.1375 3.77951Z" fill="white"/>
<path d="M20.96 3.77951C21.1992 3.77951 21.3932 3.58554 21.3932 3.34627C21.3932 3.10699 21.1992 2.91302 20.96 2.91302C20.7207 2.91302 20.5267 3.10699 20.5267 3.34627C20.5267 3.58554 20.7207 3.77951 20.96 3.77951Z" fill="white"/>
<path d="M22.7975 3.77951C23.0368 3.77951 23.2307 3.58554 23.2307 3.34627C23.2307 3.10699 23.0368 2.91302 22.7975 2.91302C22.5582 2.91302 22.3643 3.10699 22.3643 3.34627C22.3643 3.58554 22.5582 3.77951 22.7975 3.77951Z" fill="white"/>
<path d="M17.1953 10.0691C17.1953 10.6069 17.4194 11.0999 17.763 11.4584L17.5987 12.6088L19.0777 12.0261C19.1076 12.0261 19.1225 12.0261 19.1524 12.0261H21.6622C22.7378 12.0261 23.6193 11.1447 23.6193 10.0691V10.0243C23.6193 8.94862 22.7378 8.0672 21.6622 8.0672H19.1524C18.0767 8.0672 17.1953 8.94862 17.1953 10.0243V10.0691Z" fill="#E27324"/>
<path d="M20.3026 8.85907L20.6611 9.56122L21.438 9.68074L20.8703 10.2335L21.0047 11.0103L20.3026 10.6518L19.6154 11.0103L19.7498 10.2335L19.1821 9.68074L19.959 9.56122L20.3026 8.85907Z" fill="white"/>
<path d="M6.42395 10.6218C6.42395 11.1596 6.19986 11.6526 5.85625 12.0112L6.02059 13.1615L4.54158 12.5789C4.5117 12.5789 4.49677 12.5789 4.46689 12.5789H1.95706C0.881425 12.5789 0 11.6974 0 10.6218V10.577C0 9.50136 0.881425 8.61993 1.95706 8.61993H4.46689C5.54252 8.61993 6.42395 9.50136 6.42395 10.577V10.6218Z" fill="#E27324"/>
<path d="M2.82357 10.6518C3.01779 10.0691 3.45103 9.59107 4.00379 9.5612C3.98885 9.53132 3.95897 9.50144 3.92909 9.4865C3.57054 9.17277 2.86839 9.38192 2.36045 9.96456C1.92721 10.4576 1.77781 11.0551 1.95709 11.4137C2.04672 11.3838 2.6443 11.1896 2.82357 10.6518Z" fill="#FBFCF7"/>
<path d="M4.01875 9.56116C3.92911 9.60598 3.36141 9.97946 3.19708 10.3529C3.0178 10.7563 2.85347 11.4734 1.97205 11.3987C2.00192 11.4585 2.04674 11.5182 2.1065 11.563C2.46505 11.8768 3.1672 11.6676 3.67514 11.085C4.13826 10.5621 4.27272 9.90476 4.01875 9.56116Z" fill="#FBFCF7"/>
<path d="M15.8358 4.198C15.8358 5.97579 14.4016 7.40997 12.6238 7.40997C12.1607 7.40997 11.7125 7.30539 11.3241 7.14106C11.3241 7.156 11.3241 7.17094 11.3241 7.17094L9.62097 8.53042L9.9347 5.93097C9.62097 5.43797 9.42676 4.84039 9.42676 4.198C9.42676 2.42021 10.8609 0.986023 12.6387 0.986023C14.4165 0.986023 15.8358 2.43515 15.8358 4.198Z" fill="#271606"/>
<path d="M11.2195 3.13722C11.3928 3.13722 11.5332 2.99676 11.5332 2.82349C11.5332 2.65023 11.3928 2.50977 11.2195 2.50977C11.0462 2.50977 10.9058 2.65023 10.9058 2.82349C10.9058 2.99676 11.0462 3.13722 11.2195 3.13722Z" fill="white"/>
<path d="M13.9236 3.10737C14.0969 3.10737 14.2373 2.96692 14.2373 2.79365C14.2373 2.62038 14.0969 2.47992 13.9236 2.47992C13.7503 2.47992 13.6099 2.62038 13.6099 2.79365C13.6099 2.96692 13.7503 3.10737 13.9236 3.10737Z" fill="white"/>
<path d="M13.9535 5.58739C14.168 5.58739 14.3419 5.41349 14.3419 5.19897C14.3419 4.98445 14.168 4.81055 13.9535 4.81055C13.739 4.81055 13.5651 4.98445 13.5651 5.19897C13.5651 5.41349 13.739 5.58739 13.9535 5.58739Z" fill="white"/>
<path d="M11.2345 5.60223C11.449 5.60223 11.6229 5.42833 11.6229 5.2138C11.6229 4.99928 11.449 4.82538 11.2345 4.82538C11.02 4.82538 10.8461 4.99928 10.8461 5.2138C10.8461 5.42833 11.02 5.60223 11.2345 5.60223Z" fill="white"/>
<path d="M12.7583 4.8254C12.7583 4.87022 12.7732 4.94492 12.7882 5.09432C12.8778 5.34829 12.8927 5.8861 12.8927 5.8861L12.2952 6.0355C12.2952 5.70683 12.4296 5.01962 12.4595 4.8254C11.9964 4.76565 11.6378 4.36228 11.6378 3.88422C11.6378 3.36134 12.0711 2.9281 12.5939 2.9281C13.1168 2.9281 13.5501 3.36134 13.5501 3.88422C13.5501 4.36228 13.2065 4.75071 12.7583 4.8254Z" fill="white"/>
<path d="M28.1907 18.1066V7.14105H32.4335V10.9357L36.3476 7.14105H42.0843L37.5129 11.1149L42.5475 18.1215H37.2589L34.3009 13.6696L32.4335 15.1635V18.1066H28.1907Z" fill="#271707"/>
<path d="M42.1143 12.6238C42.1143 10.7116 42.7417 9.27741 43.9817 8.30635C45.2217 7.33528 47.0592 6.84229 49.4943 6.84229C51.9295 6.84229 53.767 7.33528 55.007 8.30635C56.2469 9.27741 56.8744 10.7116 56.8744 12.6238C56.8744 14.5211 56.2469 15.9703 55.007 16.9413C53.767 17.9124 51.9295 18.4054 49.4943 18.4054C47.0592 18.4054 45.2217 17.9124 43.9817 16.9413C42.7417 15.9703 42.1143 14.5361 42.1143 12.6238ZM46.6857 12.6238C46.6857 13.58 46.9248 14.312 47.4028 14.805C47.8809 15.3129 48.583 15.5669 49.4943 15.5669C50.4056 15.5669 51.0928 15.3129 51.5858 14.805C52.0639 14.2971 52.3029 13.565 52.3029 12.6238C52.3029 11.6677 52.0639 10.9357 51.5858 10.4277C51.1078 9.91981 50.4056 9.66584 49.4943 9.66584C48.583 9.66584 47.8958 9.91981 47.4028 10.4277C46.9248 10.9357 46.6857 11.6677 46.6857 12.6238Z" fill="#271707"/>
<path d="M58.6372 18.1066V7.14105H69.5878V9.83015H62.88V11.3241H68.3478V14.0281H62.88V18.1066H58.6372Z" fill="#271707"/>
<path d="M70.9324 18.1066V7.14105H82.5552V9.83015H75.1901V11.1299H81.1659V13.8339H75.1901V15.2681H82.9287V18.0916H70.9324V18.1066Z" fill="#271707"/>
<path d="M95.8214 17.1355C95.3284 17.5688 94.686 17.8825 93.9241 18.0916C93.1472 18.3008 92.1911 18.3904 91.0258 18.3904C88.5907 18.3904 86.7532 17.8974 85.5132 16.9264C84.2732 15.9553 83.6458 14.5211 83.6458 12.6089C83.6458 10.6966 84.2732 9.26245 85.5132 8.29139C86.7532 7.32033 88.5907 6.82733 91.0258 6.82733C93.0725 6.82733 94.7159 7.17094 95.9558 7.87309C97.1958 8.57524 97.898 9.54631 98.0474 10.7863H93.3863C93.1622 10.3381 92.8634 10.0094 92.4899 9.78533C92.1164 9.56124 91.6682 9.45667 91.1304 9.45667C90.249 9.45667 89.5319 9.74052 89.009 10.3082C88.4712 10.8759 88.2023 11.6378 88.2023 12.5939C88.2023 13.565 88.4712 14.312 88.9941 14.8498C89.5169 15.3876 90.249 15.6565 91.2051 15.6565C91.9072 15.6565 92.5048 15.5221 92.968 15.2681C93.4311 15.0141 93.7299 14.6556 93.8344 14.2223H92.0716V11.8769H98.1967V18.1066H96.2845L95.8214 17.1355Z" fill="#271707"/>
<path d="M98.6001 18.1066L103.351 7.14105H108.744L113.181 18.1066H108.58L108.221 17.0309H103.56L103.172 18.1066H98.6001ZM104.546 14.3269H107.265L105.95 10.4725L104.546 14.3269Z" fill="#271707"/>
<path d="M113.943 18.1066V7.14105H122.145C123.698 7.14105 124.894 7.45478 125.73 8.0673C126.567 8.69475 127 9.56124 127 10.6966C127 11.8171 126.582 12.6985 125.73 13.311C124.894 13.9385 123.683 14.2373 122.145 14.2373H118.186V18.0916H113.943V18.1066ZM120.531 9.50148H118.201V11.8619H120.531C121.218 11.8619 121.697 11.7723 121.965 11.593C122.234 11.4137 122.369 11.1149 122.369 10.6817C122.369 10.2485 122.234 9.93472 121.965 9.75545C121.697 9.59112 121.218 9.50148 120.531 9.50148Z" fill="#271707"/>
</svg>
